<svg xmlns="http://www.w3.org/2000/svg" height="800" width="1200" viewBox="-3.968745 -3.3073 34.39579 19.8438"><defs><clipPath clipPathUnits="userSpaceOnUse" id="a"><path d="M0 841.89h595.276V0H0z"/></clipPath></defs><g clip-path="url(#a)" transform="matrix(.6393 0 0 -.6467 -299.4655 35.2269)"><path d="M508.4052 37.229c-4.242 4.11-10.565 7.434-18.941 7.434-8.369 0-14.706-3.324-18.942-7.434-2.202-2.123-1.86-3.952 1.396-2.913 2.783.883 9.045 2.786 17.541 2.786 8.556 0 14.772-1.903 17.55-2.786 3.265-1.04 3.604.789 1.396 2.913" fill="#324c95"/><path d="M469.7741 53.3197h-1.349v1.061h4.154v-1.061h-1.348v-4.308h-1.457zm4.3738 1.0606h3.856v-1.017h-2.398v-1.106h2.266v-1.016h-2.266v-1.217h2.485v-1.013h-3.943zm6.0025 0h1.458v-4.308h2.021v-1.062h-3.479zm4.7737 0h3.858v-1.018h-2.401v-1.106h2.266v-1.015h-2.266v-1.216h2.487v-1.015h-3.944zm9.8073-5.245c-.417-.102-.78-.218-1.526-.218-1.351 0-3.044.723-3.044 2.755 0 1.867 1.338 2.8 3.036 2.8.577 0 1.017-.129 1.526-.278l-.118-1.161c-.472.254-.775.376-1.327.376-.983 0-1.612-.738-1.612-1.737 0-1.054.766-1.695 1.73-1.695.476 0 .866.127 1.264.279zm3.7571 5.3367c1.802 0 2.743-1.055 2.743-2.777 0-1.707-.957-2.778-2.743-2.778-1.787 0-2.745 1.071-2.745 2.778 0 1.722.941 2.777 2.745 2.777m0-4.494c.884 0 1.238.831 1.238 1.717 0 .93-.354 1.715-1.238 1.715-.888 0-1.239-.785-1.239-1.715 0-.886.351-1.717 1.239-1.717m4.3609 4.4023h2.183l1.122-3.624h.015l1.138 3.624h2.191v-5.37h-1.408l.023 4.255h-.014l-1.395-4.255h-1.208l-1.295 4.255h-.014l.031-4.255h-1.369z" fill="#706e6d"/></g></svg>